<svg width="24" height="24" viewBox="-2 -2 28 28" fill="" xmlns="http://www.w3.org/2000/svg">
<path fill-rule="evenodd" clip-rule="evenodd" d="M20.7805 5.46888C20.8503 5.53854 20.9057 5.62131 20.9436 5.71243C20.9814 5.80354 21.0008 5.90123 21.0008 5.99988C21.0008 6.09853 20.9814 6.19621 20.9436 6.28733C20.9057 6.37844 20.8503 6.46121 20.7805 6.53088L10.2805 17.0309C10.2108 17.1007 10.1281 17.1561 10.0369 17.1939C9.94582 17.2318 9.84813 17.2512 9.74948 17.2512C9.65083 17.2512 9.55315 17.2318 9.46203 17.1939C9.37091 17.1561 9.28815 17.1007 9.21848 17.0309L3.96848 11.7809C3.82765 11.64 3.74854 11.449 3.74854 11.2499C3.74854 11.0507 3.82765 10.8597 3.96848 10.7189C4.10931 10.578 4.30032 10.4989 4.49948 10.4989C4.69865 10.4989 4.88965 10.578 5.03048 10.7189L9.74948 15.4394L19.7185 5.46888C19.7882 5.39903 19.8709 5.34362 19.962 5.30581C20.0532 5.268 20.1508 5.24854 20.2495 5.24854C20.3481 5.24854 20.4458 5.268 20.5369 5.30581C20.628 5.34362 20.7108 5.39903 20.7805 5.46888Z" fill=""/>
</svg>
