<svg width="24" height="24" viewBox="0 0 24 24" fill="" xmlns="http://www.w3.org/2000/svg">
<path fill-rule="evenodd" clip-rule="evenodd" d="M11.4685 6.96888C11.5382 6.89904 11.6209 6.84362 11.712 6.80581C11.8032 6.768 11.9008 6.74854 11.9995 6.74854C12.0981 6.74854 12.1958 6.768 12.2869 6.80581C12.378 6.84362 12.4608 6.89904 12.5305 6.96888L21.5305 15.9689C21.6713 16.1097 21.7504 16.3007 21.7504 16.4999C21.7504 16.699 21.6713 16.8901 21.5305 17.0309C21.3897 17.1717 21.1986 17.2508 20.9995 17.2508C20.8003 17.2508 20.6093 17.1717 20.4685 17.0309L11.9995 8.56038L3.53048 17.0309C3.38965 17.1717 3.19865 17.2508 2.99948 17.2508C2.80032 17.2508 2.60931 17.1717 2.46848 17.0309C2.32765 16.8901 2.24854 16.699 2.24854 16.4999C2.24854 16.3007 2.32765 16.1097 2.46848 15.9689L11.4685 6.96888Z" fill=""/>
</svg>
